<?xml version="1.0" encoding="UTF-8" standalone="no"?>
<!-- Created with Inkscape (http://www.inkscape.org/) -->

<svg
   xmlns:dc="http://purl.org/dc/elements/1.1/"
   xmlns:cc="http://creativecommons.org/ns#"
   xmlns:rdf="http://www.w3.org/1999/02/22-rdf-syntax-ns#"
   xmlns:svg="http://www.w3.org/2000/svg"
   xmlns="http://www.w3.org/2000/svg"
   xmlns:sodipodi="http://sodipodi.sourceforge.net/DTD/sodipodi-0.dtd"
   xmlns:inkscape="http://www.inkscape.org/namespaces/inkscape"
   width="599"
   height="599"
   id="svg2"
   version="1.1"
   inkscape:version="0.48.5 r10040"
   sodipodi:docname="New document 1">
  <defs
     id="defs4" />
  <sodipodi:namedview
     id="base"
     pagecolor="#ffffff"
     bordercolor="#666666"
     borderopacity="1.0"
     inkscape:pageopacity="0.0"
     inkscape:pageshadow="2"
     inkscape:zoom="0.35"
     inkscape:cx="777.35518"
     inkscape:cy="-226.2165"
     inkscape:document-units="px"
     inkscape:current-layer="layer1"
     showgrid="false"
     fit-margin-top="0"
     fit-margin-left="0"
     fit-margin-right="0"
     fit-margin-bottom="0"
     inkscape:window-width="1920"
     inkscape:window-height="1018"
     inkscape:window-x="-8"
     inkscape:window-y="-8"
     inkscape:window-maximized="1" />
  <metadata
     id="metadata7">
    <rdf:RDF>
      <cc:Work
         rdf:about="">
        <dc:format>image/svg+xml</dc:format>
        <dc:type
           rdf:resource="http://purl.org/dc/dcmitype/StillImage" />
        <dc:title></dc:title>
      </cc:Work>
    </rdf:RDF>
  </metadata>
  <g
     inkscape:label="Layer 1"
     inkscape:groupmode="layer"
     id="layer1"
     transform="translate(402.35518,292.85432)">
    <g
       id="g2989"
       transform="translate(-402.35518,-292.88557)">
      <path
         id="path2991"
         d="m 598.00394,299.51575 c 0,164.87008 -133.65355,298.52362 -298.48819,298.52362 C 134.64567,598.03937 0.99212598,464.38583 0.99212598,299.51575 0.99212598,134.6811 134.64567,1.0275591 299.51575,1.0275591 c 164.83464,0 298.48819,133.6535409 298.48819,298.4881909 z"
         style="fill:none;stroke:#000000;stroke-width:1.98425198px;stroke-linecap:butt;stroke-linejoin:miter;stroke-miterlimit:4;stroke-opacity:1;stroke-dasharray:none"
         inkscape:connector-curvature="0" />
      <path
         id="path2993"
         d="M 299.51575,598.03937 C 134.64567,598.03937 0.99212598,464.38583 0.99212598,299.51575 0.99212598,134.6811 134.64567,1.0275591 299.51575,1.0275591 l 0,0 0,298.4881909 z"
         style="fill:#ffffff;fill-opacity:1;fill-rule:nonzero;stroke:none"
         inkscape:connector-curvature="0" />
      <path
         id="path2995"
         d="m 299.51575,1.0275591 c 164.83464,0 298.48819,133.6535409 298.48819,298.4881909 0,164.87008 -133.65355,298.52362 -298.48819,298.52362 l 0,-298.52362 z"
         style="fill:#00962a;fill-opacity:1;fill-rule:nonzero;stroke:none"
         inkscape:connector-curvature="0" />
      <path
         id="path2997"
         d="M 51.129921,178.86614 133.29921,301.96063 44.007874,431.07874 103.32283,301.96063 z"
         style="fill:#00962a;fill-opacity:1;fill-rule:nonzero;stroke:none"
         inkscape:connector-curvature="0" />
      <path
         id="path2999"
         d="M 547.86614,178.86614 465.69685,301.96063 554.98819,431.07874 495.67323,301.96063 z"
         style="fill:#ffffff;fill-opacity:1;fill-rule:nonzero;stroke:none"
         inkscape:connector-curvature="0" />
      <path
         id="path3001"
         d="M 540.85039,449.7874 376.33464,447.12992 310.96063,569.12598 400.67716,462.22441 z"
         style="fill:#ffffff;fill-opacity:1;fill-rule:nonzero;stroke:none"
         inkscape:connector-curvature="0" />
      <path
         id="path3003"
         d="M 58.181102,449.7874 222.66142,447.12992 288.03543,569.12598 198.3189,462.22441 z"
         style="fill:#00962a;fill-opacity:1;fill-rule:nonzero;stroke:none"
         inkscape:connector-curvature="0" />
      <path
         id="path3005"
         d="M 540.85039,146.40945 376.33464,149.10236 310.96063,27.106299 400.67716,133.97244 z"
         style="fill:#ffffff;fill-opacity:1;fill-rule:nonzero;stroke:none"
         inkscape:connector-curvature="0" />
      <path
         id="path3007"
         d="M 58.181102,146.40945 222.66142,149.10236 288.03543,27.106299 198.3189,133.97244 z"
         style="fill:#00962a;fill-opacity:1;fill-rule:nonzero;stroke:none"
         inkscape:connector-curvature="0" />
      <path
         id="path3009"
         d="m 299.51575,77.456693 -63.46063,149.598427 25.68897,92.83464 -61.01574,-87.05905 -67.88977,128.05512 64.80709,-46.45276 63.85039,71.3622 -50.20866,-17.11417 -24.34252,48.36614 43.44095,-15.55512 37.48818,38.09056 31.64174,50.59842 z"
         style="fill:#00962a;fill-opacity:1;fill-rule:nonzero;stroke:none"
         inkscape:connector-curvature="0" />
      <path
         id="path3011"
         d="m 299.51575,77.456693 63.42519,149.598427 -25.65354,92.83464 60.98032,-87.05905 67.88976,128.05512 -64.80709,-46.45276 -63.85039,71.3622 50.20866,-17.11417 24.34252,48.36614 -43.44094,-15.55512 -37.48819,38.09056 -31.6063,50.59842 z"
         style="fill:#ffffff;fill-opacity:1;fill-rule:nonzero;stroke:none"
         inkscape:connector-curvature="0" />
    </g>
  </g>
</svg>
